<?xml version="1.0" encoding="utf-8"?>
<!-- Generator: Adobe Illustrator 24.3.0, SVG Export Plug-In . SVG Version: 6.00 Build 0)  -->
<svg version="1.1" id="Layer_1" xmlns="http://www.w3.org/2000/svg" xmlns:xlink="http://www.w3.org/1999/xlink" x="0px" y="0px"
	 viewBox="0 0 171.7 96.2" style="enable-background:new 0 0 171.7 96.2;" xml:space="preserve">
<style type="text/css">
	.st0{fill:#3C2415;}
	.st1{clip-path:url(#SVGID_2_);}
	.st2{font-family:'PoorRichard-Regular';}
	.st3{font-size:48px;}
</style>
<path class="st0" d="M28,80.1c0.1,0.3,0.2,0.7,0.2,1c0,1-0.4,2-0.9,2.8c-0.8,1.3-2.7,3.2-5,3.2c-1.7,0-2.6-1.2-2.7-2.4
	c0-0.1,0-0.2,0-0.3c0-2.7,2.8-6.2,5.8-6.2C26.6,78.2,27.7,78.9,28,80.1z M25.4,78.5c-2.5,0-5.4,3-5.4,5.9c0,0.6,0.3,1.3,0.9,1.8
	c0.4,0.3,0.9,0.5,1.4,0.5c1.9,0,3.7-1.6,4.7-3c0.5-0.8,0.8-1.6,0.8-2.6c0-0.3,0-0.6-0.1-0.9C27.4,79.3,26.5,78.5,25.4,78.5z
	 M30.3,83.3c0-0.2,0-0.3,0-0.4c0-0.2,0.2-0.4,0.4-0.4c0.1,0,0.2,0.1,0.2,0.3l-0.1,0.3c-0.1,0.3-0.3,0.7-0.3,0.8l0.3-0.3
	c0.3-0.3,0.7-0.7,1.1-1c0.4-0.3,0.8-0.5,1.2-0.5c0.3,0,0.6,0.1,0.7,0.4c0.1,0.2,0.1,0.3,0,0.5c0,0.1-0.2,0.2-0.3,0.2
	s-0.2-0.1-0.1-0.2c0,0,0-0.1,0-0.2c0-0.1-0.1-0.3-0.3-0.3c-0.7,0-1.6,0.8-2.1,1.3c-0.3,0.3-0.6,0.7-0.9,1.1
	c-0.1,0.4-0.3,0.9-0.3,1.2c0,0.1-0.2,0.2-0.3,0.2c-0.1,0-0.1-0.1-0.1-0.2c0-0.2,0.1-0.5,0.2-0.8c0.1-0.5,0.3-0.9,0.4-1.4L30.3,83.3z
	 M36.7,82.5c0.2,0,0.2,0.1,0.2,0.2c0,0.1-0.1,0.3-0.1,0.5c-0.2,0.6-0.4,1.3-0.6,2.1c-0.1,0.3-0.2,0.6-0.2,1c0,0.1-0.1,0.2-0.2,0.2
	s-0.2-0.1-0.2-0.2c0-0.2,0-0.4,0.1-0.5c0.2-0.8,0.4-1.8,0.8-2.7c0.1-0.1,0.1-0.3,0.1-0.4C36.5,82.5,36.6,82.5,36.7,82.5z M43,82.7
	l0.1-0.2c0-0.1,0.1-0.1,0.2-0.1c0.2,0,0.2,0.1,0.2,0.2c0,0.3-0.2,1-0.2,1.4c-0.3,1.8-0.8,3.7-1.9,5.3c-0.7,0.9-1.7,2-2.9,2
	c-0.9,0-1.7-0.6-1.7-1.5c0-0.2,0.1-0.7,0.3-0.7c0.1,0,0.3,0.2,0.2,0.3c-0.1,0.2-0.1,0.3-0.1,0.5c0,0.7,0.7,1.1,1.3,1.1
	c0.8,0,1.6-0.6,2.1-1.2c1.5-1.7,2-3.9,2.4-6.1c-0.5,0.7-1.2,1.4-1.9,2c-0.4,0.3-1,0.7-1.5,0.7c-0.5,0-0.7-0.3-0.7-0.7
	c0-1,1.1-2.1,1.8-2.7c0.4-0.3,0.9-0.7,1.5-0.7c0.2,0,0.4,0.1,0.6,0.2C42.9,82.5,43,82.6,43,82.7C43,82.7,43,82.7,43,82.7z M36.9,81
	c0,0,0.1,0,0.2,0c0.1,0,0.3,0.1,0.3,0.2c0,0.1-0.1,0.2-0.2,0.3c-0.1,0.1-0.2,0.1-0.2,0.1c-0.1,0-0.2-0.1-0.2-0.3
	C36.7,81.1,36.8,81.1,36.9,81z M42.8,83L42.8,83c-0.1,0-0.2,0-0.2-0.1c-0.1-0.1-0.2-0.2-0.4-0.2c-0.8,0-1.8,0.9-2.4,1.8
	c-0.2,0.3-0.5,0.8-0.5,1.2c0,0.2,0.2,0.2,0.3,0.2c0.2,0,0.4-0.1,0.7-0.2C41.2,85.2,42.2,84.1,42.8,83z M47.2,82.5
	c0.2,0,0.2,0.1,0.2,0.2c0,0.1-0.1,0.3-0.1,0.5c-0.2,0.6-0.4,1.3-0.6,2.1c-0.1,0.3-0.2,0.6-0.2,1c0,0.1-0.1,0.2-0.2,0.2
	S46,86.3,46,86.2c0-0.2,0-0.4,0.1-0.5c0.2-0.8,0.4-1.8,0.8-2.7c0.1-0.1,0.1-0.3,0.1-0.4C47,82.5,47.1,82.5,47.2,82.5z M47.4,81
	c0,0,0.1,0,0.2,0c0.1,0,0.3,0.1,0.3,0.2c0,0.1-0.1,0.2-0.2,0.3c-0.1,0.1-0.2,0.1-0.2,0.1c-0.1,0-0.2-0.1-0.2-0.3
	C47.2,81.1,47.3,81.1,47.4,81z M51.5,83.8c-0.3,0.3-0.5,0.6-0.7,0.9c-0.3,0.4-0.6,0.8-0.8,1.3l-0.1,0.1c-0.1,0.1-0.1,0.2-0.3,0.2
	c-0.1,0-0.2-0.1-0.2-0.2c0-0.1,0.1-0.4,0.2-0.6c0.1-0.3,0.2-0.6,0.3-0.9c0.3-0.7,0.6-1.5,0.8-2.1c0-0.1,0.1-0.1,0.2-0.1
	c0.2,0,0.2,0.1,0.2,0.2c0,0.1-0.2,0.5-0.2,0.7c-0.2,0.5-0.4,0.9-0.5,1.4c0.3-0.4,0.6-0.8,0.9-1.2c0.4-0.5,1.2-1.3,1.9-1.3
	c0.3,0,0.6,0.2,0.6,0.6c0,0.2,0,0.4-0.1,0.5c-0.1,0.6-0.3,1.3-0.5,1.9c-0.1,0.2-0.2,0.8-0.1,1c0.1,0,0.1,0.1,0.1,0.2
	c0,0.1-0.1,0.2-0.2,0.2c-0.2,0-0.3-0.3-0.3-0.5c0-0.5,0.2-1.4,0.4-2.1c0.1-0.4,0.2-0.9,0.2-1.1c0-0.1-0.1-0.2-0.2-0.2
	c-0.2,0-0.5,0.1-0.8,0.3C52,83.2,51.7,83.6,51.5,83.8z M60.2,82.8c0,0.1,0,0.2-0.2,0.2c-0.1,0-0.2-0.1-0.2-0.2
	c-0.1-0.1-0.2-0.1-0.3-0.1c-0.5,0-1,0.4-1.4,0.7c-0.5,0.4-1.7,1.5-1.7,2.3c0,0.2,0.1,0.3,0.3,0.3c0.3,0,0.5-0.1,0.8-0.2
	c0.3-0.2,0.5-0.3,0.7-0.5c0.6-0.5,1.2-1.2,1.8-1.8l0.1-0.1c0.1-0.1,0.1-0.1,0.2-0.1c0.1,0,0.2,0.1,0.2,0.2c0,0.1,0,0.1-0.1,0.2
	c-0.1,0.1-0.1,0.3-0.2,0.5c-0.1,0.3-0.2,0.5-0.3,0.8c-0.1,0.3-0.3,1.1-0.3,1.3c0,0.2,0,0.3-0.2,0.3c-0.1,0-0.2-0.1-0.2-0.2
	c0-0.1,0-0.4,0.1-0.5c0.1-0.4,0.2-0.9,0.4-1.4c-0.5,0.5-1,1-1.5,1.4c-0.4,0.3-0.9,0.6-1.4,0.6c-0.4,0-0.7-0.3-0.7-0.7
	c0-0.9,1-2,1.8-2.6c0.5-0.3,1.1-0.7,1.6-0.7c0.2,0,0.5,0.1,0.7,0.3C60.1,82.6,60.2,82.7,60.2,82.8z M65.2,78.6
	c0.1,0,0.2,0.2,0.1,0.3L65.3,79c-0.2,0.5-0.4,0.9-0.5,1.4c-0.4,1.2-0.8,2.5-1.1,3.7c-0.1,0.5-0.3,1-0.3,1.3c0,0.2-0.1,0.5-0.1,0.6
	c0,0,0,0,0.1,0.1c0,0.1-0.1,0.3-0.2,0.3c-0.1,0-0.2-0.1-0.2-0.2c0-0.2,0-0.5,0.1-0.8c0.1-0.4,0.2-1,0.3-1.4c0.3-1.2,0.7-2.4,1.2-3.6
	c0.2-0.5,0.4-1,0.5-1.5c0-0.1,0.1-0.2,0.1-0.2C65,78.6,65.1,78.5,65.2,78.6z M67.7,82.5c0.2,0,0.2,0.1,0.2,0.2
	c0,0.1-0.1,0.3-0.1,0.5c-0.2,0.6-0.4,1.3-0.6,2.1c-0.1,0.3-0.2,0.6-0.2,1c0,0.1-0.1,0.2-0.2,0.2s-0.2-0.1-0.2-0.2
	c0-0.2,0-0.4,0.1-0.5c0.2-0.8,0.4-1.8,0.8-2.7c0.1-0.1,0.1-0.3,0.1-0.4C67.5,82.5,67.6,82.5,67.7,82.5z M67.9,81c0,0,0.1,0,0.2,0
	c0.1,0,0.3,0.1,0.3,0.2c0,0.1-0.1,0.2-0.2,0.3c-0.1,0.1-0.2,0.1-0.2,0.1c-0.1,0-0.2-0.1-0.2-0.3C67.7,81.1,67.8,81.1,67.9,81z
	 M72.3,80.6C72.2,81,72,81.5,71.9,82c-0.4,1.2-0.9,2.7-1,3.6c0,0.2-0.1,0.3,0,0.5c0,0,0.1,0.1,0.1,0.2c0,0.1-0.1,0.2-0.2,0.2
	c-0.1,0-0.2-0.1-0.2-0.2c0-0.2,0-0.5,0.1-0.8c0.1-0.6,0.6-2.2,1-3.5c0.1-0.4,0.3-0.9,0.5-1.4c-0.6,0-1.1,0.1-1.7,0.2
	c-0.1,0.1-0.1,0.1-0.2,0.1c-0.1,0-0.2,0-0.3-0.1c-0.1-0.1-0.1-0.2,0-0.3c0.1-0.1,1.3-0.2,2.3-0.2c0.2-0.7,0.4-1.1,0.5-1.5
	c0.1-0.1,0.1-0.2,0.2-0.1c0.1,0,0.2,0.2,0.2,0.3L72.9,79c-0.1,0.3-0.2,0.5-0.3,0.7c-0.1,0.1-0.1,0.3-0.2,0.5c0.5,0,1,0,1.3-0.1
	c0.2,0,0.5,0,0.7,0c0.8,0,1.7,0,2.3,0.1c0.1,0,0.2,0.1,0.2,0.2c0,0.1-0.1,0.2-0.2,0.2c-0.4,0-1.3-0.1-2.1-0.1c-0.3,0-0.6,0-0.9,0
	C73.2,80.5,72.8,80.5,72.3,80.6z M78.2,82.3c0-0.1,0.1-0.2,0.2-0.2c0.1,0,0.2,0.1,0.2,0.2c0,0-0.1,0.2-0.1,0.3
	c-0.2,0.5-0.4,1.2-0.6,1.8c-0.4,1.4-0.9,3-1.2,4.3c-0.2,0.7-0.4,1.4-0.4,2.1c0,0.1,0,0.1,0,0.2c0,0,0,0.1,0,0.1
	c0,0.1-0.1,0.2-0.2,0.2c-0.2,0-0.2-0.3-0.2-0.4c0-0.4,0.2-1.2,0.4-2.1c0.2-0.8,0.4-1.7,0.6-2.5c0.2-0.7,0.4-1.5,0.7-2.3
	c-0.4,0.5-0.8,1-1.2,1.3c-0.5,0.5-1.1,0.9-1.6,0.9c-0.4,0-0.7-0.2-0.7-0.7c0-0.4,0.1-0.8,0.3-1.2c0.2-0.5,0.4-0.9,0.6-1.4
	c0-0.2,0.2-0.6,0.5-0.6c0.1,0,0.2,0.1,0.2,0.2c0,0.1-0.1,0.2-0.1,0.3c-0.2,0.4-0.5,0.8-0.6,1.2c-0.2,0.5-0.5,1-0.5,1.5
	c0,0.3,0.1,0.3,0.3,0.3c0.5,0,1.1-0.5,1.7-1.1c0.5-0.5,0.9-1.1,1.2-1.4c0.4-0.6,0.4-0.6,0.5-0.8L78.2,82.3z M85.2,84
	c0.5-0.8,1.5-1.7,2.6-1.7c0.7,0,1,0.4,1,1c0,0.9-0.6,1.7-1.3,2.3c-0.5,0.4-1,0.7-1.7,0.7c-0.7,0-1.1-0.5-1.1-1
	C84.8,84.8,85,84.3,85.2,84z M85.8,85.9c0.5,0,1.1-0.4,1.4-0.7c0.5-0.4,1.2-1.2,1.2-2c0-0.4-0.2-0.6-0.6-0.6c-0.5,0-1.1,0.3-1.5,0.7
	c-0.4,0.3-1.1,1.1-1.1,1.9C85.2,85.6,85.4,85.9,85.8,85.9z M95.8,78.6c0,0.1-0.1,0.2-0.2,0.2c0,0-0.1,0-0.2-0.1
	c-0.1-0.1-0.2-0.1-0.4-0.1c-0.7,0-1.3,0.7-1.6,1.2c-0.3,0.6-0.6,1.2-0.9,1.9c0.4,0,0.8,0,1.2,0c0.4,0,0.6,0,0.8,0
	c0.1,0,0.2,0.1,0.2,0.2c0,0.1-0.1,0.2-0.2,0.2c-0.2,0-0.3,0-0.5,0c-0.1,0-0.4,0-0.5,0c-0.4,0-0.8,0-1.2,0c-0.2,0.6-0.4,1.2-0.6,1.8
	c-0.3,1-0.6,1.9-0.9,3.2c-0.2,0.9-0.5,2.1-0.6,2.6c0.1,0,0.1,0.1,0.1,0.2c0,0.1-0.1,0.3-0.3,0.3c-0.2,0-0.2-0.1-0.2-0.3
	c0-0.2,0.1-0.5,0.1-0.8c0.3-1.5,0.8-3.5,1.4-5.4c0.2-0.5,0.3-0.9,0.5-1.5c-0.2,0-0.4,0-0.6,0.1c-0.1,0-0.3,0.1-0.4,0.1
	c-0.1,0-0.2-0.1-0.2-0.2s0.1-0.2,0.2-0.2c0.3-0.1,0.8-0.1,1.3-0.2c0.5-1.4,1.4-3.6,3-3.6C95.4,78.2,95.7,78.3,95.8,78.6
	C95.8,78.5,95.8,78.6,95.8,78.6z M101.4,79.1C101.4,79.2,101.3,79.2,101.4,79.1c-0.2,0-0.3-0.1-0.3-0.2c0-0.1,0.1-0.2,0.2-0.2
	c0.9-0.3,1.8-0.5,2.7-0.6c0-0.1,0.1-0.2,0.1-0.2c0-0.1,0.1-0.1,0.2-0.1c0.1,0,0.2,0.1,0.2,0.2c0,0.1,0,0.1,0,0.1c0.2,0,0.3,0,0.5,0
	c1,0,2.2,0.1,3,0.7c0.6,0.4,0.9,1,0.9,1.7c0,2-2.6,3.3-4.6,3.3c-0.4,0-1.4-0.1-1.4-0.6c0-0.2,0.1-0.3,0.2-0.3c0.2,0,0.2,0.1,0.2,0.2
	c0,0.1,0.1,0.2,0.2,0.2c0.2,0.1,0.5,0.1,0.8,0.1c0.8,0,1.6-0.2,2.2-0.5c0.9-0.5,2-1.3,2-2.4c0-0.6-0.3-1.1-0.7-1.4
	c-0.8-0.6-1.9-0.7-2.8-0.7c-0.2,0-0.4,0-0.7,0c-0.2,0.4-0.3,0.8-0.5,1.2c-0.4,1.1-0.8,2.2-1.1,3.3c-0.3,0.9-0.6,1.9-0.8,2.7
	c-0.1,0.4-0.2,0.9-0.3,1.3c0,0.1-0.1,0.2-0.2,0.2c-0.1,0-0.2-0.1-0.2-0.2c0-0.2,0.2-1,0.4-1.6c0.4-1.4,0.8-2.8,1.3-4.2
	c0.3-0.9,0.6-1.8,1-2.7C103,78.7,102.1,78.9,101.4,79.1z M110.2,86c0.8,0,1.8-0.5,2.4-1c0,0,0.1-0.1,0.1-0.1c0.1,0,0.2,0.1,0.2,0.2
	c0,0.1,0,0.1-0.1,0.1c-0.7,0.6-1.7,1.2-2.7,1.2c-0.5,0-0.9-0.3-0.9-0.8c0-0.3,0.1-0.5,0.2-0.8c0.3-0.6,0.8-1.4,1.6-1.9
	c0.5-0.3,1.1-0.6,1.5-0.6c0.3,0,0.8,0.1,0.8,0.6c0,0.3-0.1,0.4-0.3,0.6c-0.6,0.6-1.9,1.1-2.9,1.1c-0.1,0-0.1,0-0.1,0
	c-0.2,0.3-0.3,0.6-0.3,1C109.6,85.8,109.9,86,110.2,86z M111.6,83.8c0.4-0.2,1.3-0.5,1.3-1c0-0.2-0.2-0.2-0.3-0.2
	c-0.8,0-1.8,0.8-2.3,1.5C110.6,84.1,111.1,84,111.6,83.8z M116.2,83.3c0-0.2,0-0.3,0-0.4c0-0.2,0.2-0.4,0.4-0.4
	c0.1,0,0.2,0.1,0.2,0.3l-0.1,0.3c-0.1,0.3-0.3,0.7-0.3,0.8l0.3-0.3c0.3-0.3,0.7-0.7,1.1-1c0.4-0.3,0.8-0.5,1.2-0.5
	c0.3,0,0.6,0.1,0.7,0.4c0.1,0.2,0.1,0.3,0,0.5c0,0.1-0.2,0.2-0.3,0.2s-0.2-0.1-0.1-0.2c0,0,0-0.1,0-0.2c0-0.1-0.1-0.3-0.3-0.3
	c-0.7,0-1.6,0.8-2.1,1.3c-0.3,0.3-0.6,0.7-0.9,1.1c-0.1,0.4-0.3,0.9-0.3,1.2c0,0.1-0.2,0.2-0.3,0.2c-0.1,0-0.1-0.1-0.1-0.2
	c0-0.2,0.1-0.5,0.2-0.8c0.1-0.5,0.3-0.9,0.4-1.4L116.2,83.3z M124.2,78.6c0,0.1-0.1,0.2-0.2,0.2c0,0-0.1,0-0.2-0.1
	c-0.1-0.1-0.2-0.1-0.4-0.1c-0.7,0-1.3,0.7-1.6,1.2c-0.3,0.5-0.6,1.1-0.7,1.6l-0.2,0.5c0.4,0,0.8,0,1.7,0c0.2,0,0.4,0,0.7,0
	c0.1,0,0.2,0.1,0.2,0.2c0,0.1-0.1,0.2-0.2,0.2c-0.2,0-0.3,0-0.5,0c-0.1,0-0.4,0-0.5,0c-0.4,0-1,0-1.5,0.1c-0.2,0.5-0.3,1.1-0.5,1.6
	c-0.3,1-0.6,1.9-0.8,2.9c-0.3,1.2-0.6,2.4-0.7,2.9c0.1,0,0.1,0.1,0.1,0.2c0,0.1-0.1,0.3-0.3,0.3c-0.2,0-0.2-0.1-0.2-0.3
	c0-0.4,0.3-2,0.7-3.2c0.4-1.4,0.8-3,1.3-4.4c0,0-0.1,0-0.1,0c-0.1,0-0.2-0.1-0.2-0.2c0-0.1,0.1-0.2,0.3-0.2c0,0,0.1,0,0.2,0
	c0.1-0.2,0.1-0.4,0.2-0.6c0.5-1.4,1.4-3.2,2.8-3.2c0.3,0,0.5,0.1,0.7,0.3C124.2,78.6,124.2,78.6,124.2,78.6z M124.2,85.6
	c0,0.1,0.1,0.2,0.2,0.2c0.4,0,0.8-0.4,1.1-0.6c0.7-0.7,1.5-1.8,2.1-2.7c0.1-0.1,0.1-0.2,0.2-0.2c0.1,0,0.2,0.1,0.2,0.2
	c0,0,0,0.1,0,0.1c-0.3,0.8-0.6,1.7-0.8,2.6c-0.1,0.3-0.1,0.6-0.1,0.9c0,0.1,0,0.3-0.2,0.3c-0.1,0-0.2-0.1-0.2-0.2c0-0.2,0-0.3,0-0.5
	c0.1-0.5,0.2-1.2,0.4-1.8c-0.4,0.6-0.9,1.1-1.3,1.6c-0.4,0.3-0.9,0.8-1.5,0.8c-0.4,0-0.6-0.3-0.6-0.7c0-0.6,0.3-1.3,0.6-1.9
	c0.1-0.2,0.3-0.6,0.4-0.7c0-0.2,0.2-0.6,0.5-0.6c0.1,0,0.2,0.1,0.2,0.2c0,0,0,0-0.1,0.3c-0.2,0.4-0.5,1-0.7,1.3
	C124.4,84.5,124.2,85.1,124.2,85.6z M136.4,82.7c-0.2,0-0.5,0.2-0.7,0.4c-0.4,0.3-0.8,0.7-1.1,1.2c-0.5,0.6-0.9,1.2-1.2,1.9
	c0,0.1-0.1,0.1-0.2,0.1c-0.1,0-0.2-0.1-0.2-0.2c0-0.1,0.1-0.3,0.1-0.5c0.1-0.4,0.1-0.5,0.2-0.7c0.1-0.5,0.3-1.2,0.3-1.7
	c0-0.1,0-0.4-0.1-0.4c-0.3,0-0.9,0.6-1.5,1.2c-0.5,0.6-1,1.2-1.4,2l-0.1,0.2c0,0.1-0.1,0.1-0.2,0.1c-0.1,0-0.2-0.1-0.2-0.2
	c0-0.1,0.1-0.3,0.2-0.6c0.3-0.9,0.7-2,1.1-3c0-0.1,0.1-0.1,0.2-0.1c0.1,0,0.2,0.1,0.2,0.2c0,0.1-0.1,0.3-0.2,0.4
	c-0.2,0.5-0.4,1.1-0.6,1.5c0.4-0.6,0.9-1.1,1.4-1.6c0.3-0.3,0.8-0.6,1.2-0.6c0.4,0,0.5,0.4,0.5,0.7c0,0.5-0.1,0.9-0.2,1.4
	c0.3-0.4,0.6-0.8,1-1.2c0.3-0.4,1.1-1,1.6-1c0.3,0,0.5,0.2,0.5,0.5c0,0.4-0.2,1-0.3,1.4l-0.1,0.4c-0.1,0.3-0.3,1.2-0.3,1.4
	c0.1,0,0.1,0.1,0.1,0.2c0,0.1-0.1,0.2-0.2,0.2c-0.2,0-0.3-0.3-0.3-0.5c0-0.3,0.1-0.7,0.2-1.1c0.1-0.3,0.2-0.7,0.3-1
	c0.1-0.3,0.2-0.8,0.2-1C136.5,82.8,136.5,82.7,136.4,82.7z M140,86c0.8,0,1.8-0.5,2.4-1c0,0,0.1-0.1,0.1-0.1c0.1,0,0.2,0.1,0.2,0.2
	c0,0.1,0,0.1-0.1,0.1c-0.7,0.6-1.7,1.2-2.7,1.2c-0.5,0-0.9-0.3-0.9-0.8c0-0.3,0.1-0.5,0.2-0.8c0.3-0.6,0.8-1.4,1.6-1.9
	c0.5-0.3,1.1-0.6,1.5-0.6c0.3,0,0.8,0.1,0.8,0.6c0,0.3-0.1,0.4-0.3,0.6c-0.6,0.6-1.9,1.1-2.9,1.1c-0.1,0-0.1,0-0.1,0
	c-0.2,0.3-0.3,0.6-0.3,1C139.5,85.8,139.7,86,140,86z M141.4,83.8c0.4-0.2,1.3-0.5,1.3-1c0-0.2-0.2-0.2-0.3-0.2
	c-0.8,0-1.8,0.8-2.3,1.5C140.4,84.1,140.9,84,141.4,83.8z M147.8,82.8c-0.1,0-0.1,0-0.2,0c-0.5,0.1-1.2,0.3-1.2,0.6
	c0,0.2,0.5,0.6,0.7,0.7c0.4,0.3,0.8,0.6,0.8,1c0,0.9-1.8,1.3-2.8,1.3c-0.2,0-0.8,0-0.8-0.3c0-0.1,0.1-0.2,0.2-0.2
	c0.2,0,0.4,0.1,0.7,0.1c0.4,0,0.8-0.1,1.1-0.1c0.5-0.1,1.1-0.3,1.1-0.7c0-0.2-0.1-0.4-0.3-0.5c-0.2-0.1-0.3-0.3-0.5-0.4
	c-0.3-0.2-0.6-0.5-0.6-0.9c0-0.6,0.8-0.8,1.3-1c0.2-0.1,0.5-0.1,0.8-0.1c0.2,0,0.4,0,0.4,0.2c0,0.3-0.3,0.3-0.4,0.3
	C148,82.8,147.9,82.8,147.8,82.8z"/>
<g>
	<defs>
		<rect id="SVGID_1_" y="0" width="171.7" height="96.2"/>
	</defs>
	<clipPath id="SVGID_2_">
		<use xlink:href="#SVGID_1_"  style="overflow:visible;"/>
	</clipPath>
	<g class="st1">
		<text transform="matrix(1 0 0 1 0 69.4704)" class="st0 st2 st3">Zümrüt</text>
	</g>
</g>
<polygon class="st0" points="60.8,10.9 55.1,20.3 63.3,33.9 75.1,10.9 "/>
<polygon class="st0" points="67.3,0 61.9,9.1 78.5,9.1 64.6,36 67.3,40.6 91.8,40.6 97.2,31.7 80.4,31.7 94.5,4.5 91.8,0 "/>
<polygon class="st0" points="98.3,29.8 104,20.3 95.8,6.6 83.8,29.8 "/>
</svg>
